<svg xmlns="http://www.w3.org/2000/svg" viewBox="0 0 55.07 55"><defs><style>.cls-1{fill:#ff4141;}</style></defs><title>agregar usuario</title><g id="Layer_2" data-name="Layer 2"><g id="Layer_1-2" data-name="Layer 1"><path class="cls-1" d="M27.52,0H39.9A14.58,14.58,0,0,1,51.18,4.92,13.65,13.65,0,0,1,55,14.11c.1,8.88.14,17.76,0,26.65A14.76,14.76,0,0,1,41.3,54.89c-1,.06-2.09.1-3.13.1H15.47a15,15,0,0,1-9.67-3.2,14,14,0,0,1-5.69-11Q-.1,27.53.1,14.23A14.69,14.69,0,0,1,14.4,0C18.77,0,23.15,0,27.52,0ZM25,37.92H35c.34,0,.71.11.81-.44.48-2.48-.16-4.17-2.39-5.35a17.83,17.83,0,0,0-15.87-.54c-2.41,1-3.77,2.61-3.41,5.41.09.77.29.94,1,.94C18.45,37.91,21.72,37.92,25,37.92Zm0-10.4a5.32,5.32,0,0,0,5.5-5.17,5.46,5.46,0,0,0-10.91-.11A5.34,5.34,0,0,0,25,27.52Zm12,.05v1.81c0,2.29,0,2.3,2.3,2.05a.83.83,0,0,0,.55-.57,18.23,18.23,0,0,0,0-2.56c0-.63.21-.81.81-.78,1,0,2.06,0,3.18,0V26.44c0-1.67,0-1.67-1.63-1.67H39.88V22.84c0-2,0-2-2-2-.69,0-.91.25-.88.92.05,1,0,1.95,0,3-1.21,0-2.28,0-3.35,0-.21,0-.58.21-.59.34-.06.78,0,1.57,0,2.44Z"/></g></g></svg>