<svg xmlns="http://www.w3.org/2000/svg" viewBox="0 0 118.99 142.81"><defs><style>.cls-1{fill:none;stroke:#000;stroke-linecap:round;stroke-linejoin:round;stroke-width:7px;}</style></defs><title>Asset 1</title><g id="Layer_2" data-name="Layer 2"><g id="Layer_3" data-name="Layer 3"><path class="cls-1" d="M93.5,83.5c-2-19-20-36-43-31S9,93,44,128"/><path class="cls-1" d="M115.49,48.53c-13.61-17.17-33.65-28-56-28s-42.38,10.86-56,28"/><path class="cls-1" d="M101.1,15.5a78.12,78.12,0,0,0-83.21,0"/><path class="cls-1" d="M32.69,139.31C12.22,118.85,4.23,94.36,10.76,72.12,16,54.37,30.24,40.53,47.1,36.87a50.64,50.64,0,0,1,41,8.3,52.06,52.06,0,0,1,21.31,36.66,16,16,0,0,1-31.82,3.34,20.36,20.36,0,0,0-.72-3.52c-2.93-10.08-13-16.3-22.93-13.53S38.05,80.85,40.85,92.9c1.76,7.6,6.54,15.57,14.81,22.61,12.93,11,23,11.81,23,11.81"/><path class="cls-1" d="M57.63,82.73a40.67,40.67,0,0,0,47.17,32.91"/></g></g></svg>