<svg xmlns="http://www.w3.org/2000/svg" viewBox="0 0 13.06 13"><defs><style>.cls-1{fill:#666;}</style></defs><title>Asset 13</title><g id="Layer_2" data-name="Layer 2"><g id="Layer_1-2" data-name="Layer 1"><path class="cls-1" d="M5.89,12.67c0,.27-.1.33-.35.33H.32C.06,13,0,12.91,0,12.67,0,11,0,9.23,0,7.5c0-.27.1-.32.34-.32.88,0,1.75,0,2.62,0s1.72,0,2.58,0c.25,0,.35.05.35.32C5.88,9.23,5.88,11,5.89,12.67Z"/><path class="cls-1" d="M5.88,5.54c0,.2-.07.28-.27.28-1.75,0-3.51,0-5.26,0-.22,0-.29-.08-.29-.29C.07,3.78.07,2,.06.3c0-.24.08-.3.3-.3H3c.87,0,1.74,0,2.61,0,.23,0,.3.07.29.28Z"/><path class="cls-1" d="M13.06,5.47c0,.27-.08.35-.35.35-1.7,0-3.41,0-5.11,0-.29,0-.37-.09-.37-.37,0-1.67,0-3.35,0-5,0-.42,0-.42.41-.42H13c0,.15,0,.26,0,.38C13.06,2.08,13.05,3.78,13.06,5.47Z"/><path class="cls-1" d="M13.06,9.62c0,.32,0,.64,0,1,0,.17-.06.24-.24.23H11.23c-.23,0-.32.07-.3.3s0,.51,0,.76v.86c0,.18-.07.26-.26.25-.34,0-.67,0-1,0s-.27-.09-.26-.29c0-.5,0-1,0-1.52,0-.28-.07-.39-.36-.37-.52,0-1,0-1.56,0-.19,0-.27-.05-.26-.25v-1c0-.22.1-.27.29-.27H9.11c.23,0,.31-.07.31-.3,0-.52,0-1,0-1.56,0-.21.06-.28.27-.27s.63,0,.94,0,.32.1.31.33c0,.5,0,1,0,1.5,0,.24.08.3.3.3h1.5C13,9.31,13.08,9.35,13.06,9.62Z"/></g></g></svg>