<svg xmlns="http://www.w3.org/2000/svg" viewBox="0 0 15.01 15"><defs><style>.cls-1{fill:#666;}</style></defs><title>cargar</title><g id="Layer_2" data-name="Layer 2"><g id="Layer_1-2" data-name="Layer 1"><path class="cls-1" d="M15,3a1.75,1.75,0,0,0-.43-1.18c-.38-.44-.74-.89-1.11-1.33a1.2,1.2,0,0,0-1-.46h-10a1.16,1.16,0,0,0-.92.43c-.4.47-.8,1-1.19,1.44A1.61,1.61,0,0,0,0,2.93V13.21A1.67,1.67,0,0,0,1.79,15H13.27A1.67,1.67,0,0,0,15,13.3Q15,8.13,15,3ZM9.18,9.51v1.65H5.86V9.51H3L7.51,5,12,9.51ZM1.8,1.64c.21-.27.39-.51.59-.73A.33.33,0,0,1,2.62.84h9.63a.49.49,0,0,1,.31.14c.2.19.39.41.62.66Z"/></g></g></svg>