<svg xmlns="http://www.w3.org/2000/svg" viewBox="0 0 14 15.28"><defs><style>.cls-1{fill:#666;}</style></defs><title>cerrar x</title><g id="Layer_2" data-name="Layer 2"><g id="Layer_1-2" data-name="Layer 1"><path class="cls-1" d="M7,9.81,5.78,11.88,3.9,15.12a.39.39,0,0,1-.25.15H.14l-.14,0,.37-.62L4.54,7.8a.27.27,0,0,0,0-.31Q2.38,3.88.24.26C.2.19.16.11.1,0H3.67A.36.36,0,0,1,4,.22L6.9,5.47l.1.16.49-.88L10,.16c0-.06.14-.15.2-.15h3.69l-.08.17L9.69,7.07a1.51,1.51,0,0,1-.1.17c-.25.27-.21.51,0,.82,1.43,2.3,2.84,4.62,4.26,6.93l.16.27-.24,0H10.44a.34.34,0,0,1-.34-.19L7.12,10Z"/></g></g></svg>