<svg xmlns="http://www.w3.org/2000/svg" viewBox="0 0 12.93 10.95"><defs><style>.cls-1{fill:#666;}</style></defs><title>check</title><g id="Layer_2" data-name="Layer 2"><g id="Layer_1-2" data-name="Layer 1"><path class="cls-1" d="M6,5.76,8.44,3.25,10.92.77a.65.65,0,0,1,1,0l.75.76a.61.61,0,0,1,0,.94L6.44,8.73a.61.61,0,0,1-1,0L2.23,5.46a.62.62,0,0,1,0-1l.71-.7A.65.65,0,0,1,4,3.77L5.73,5.49C5.8,5.56,5.86,5.65,6,5.76Z"/><path class="cls-1" d="M5.46,11H2.35A2.23,2.23,0,0,1,0,8.59V2.34A2.21,2.21,0,0,1,2.34,0h6.3a3.64,3.64,0,0,1,.92.17c.23.07.26.27.1.45S9.45.85,9.33,1a.43.43,0,0,1-.25.1C8.37,1,7.66,1,7,1,5.42,1,3.89,1,2.37,1A1.26,1.26,0,0,0,1,2.37C1,4.44,1,6.5,1,8.57A1.34,1.34,0,0,0,2.38,10c2.07,0,4.15,0,6.22,0A1.25,1.25,0,0,0,10,8.62c0-.56,0-1.12,0-1.68a.63.63,0,0,1,.22-.52c.13-.11.23-.24.36-.35s.41-.07.41.14a26.54,26.54,0,0,1-.06,3,2.1,2.1,0,0,1-2.08,1.77H5.46Z"/></g></g></svg>