<svg xmlns="http://www.w3.org/2000/svg" viewBox="0 0 22.5 22.49"><defs><style>.cls-1{fill:#666;}</style></defs><title>descargar</title><g id="Layer_2" data-name="Layer 2"><g id="Layer_1-2" data-name="Layer 1"><path class="cls-1" d="M22.5,4.45a2.6,2.6,0,0,0-.66-1.76c-.56-.66-1.11-1.34-1.66-2A1.83,1.83,0,0,0,18.74,0h-15A1.73,1.73,0,0,0,2.34.64C1.73,1.35,1.14,2.08.56,2.8A2.42,2.42,0,0,0,0,4.39V19.8a2.51,2.51,0,0,0,2.68,2.69H19.9a2.51,2.51,0,0,0,2.59-2.55Q22.51,12.18,22.5,4.45ZM11.24,18,4.53,11.25H8.74V8.79h5v2.47H18ZM2.7,2.46c.32-.4.59-.76.88-1.09a.5.5,0,0,1,.34-.11H18.37a.7.7,0,0,1,.45.19c.32.3.59.63.94,1Z"/></g></g></svg>