<svg xmlns="http://www.w3.org/2000/svg" viewBox="0 0 22 23.09"><defs><style>.cls-1{fill:#666;}</style></defs><title>dispositivi +</title><g id="Layer_2" data-name="Layer 2"><g id="Layer_1-2" data-name="Layer 1"><path class="cls-1" d="M13.38,1.56a2.32,2.32,0,0,0,0-.53,1.33,1.33,0,0,0-1.23-1l-.4,0H1.38A1.32,1.32,0,0,0,0,1.4V16.1C0,17.56,0,19,0,20.49A1.4,1.4,0,0,0,1.49,22h9.83a6.76,6.76,0,0,1,2.06-10.65ZM6.9,2.91H4a.58.58,0,0,1-.6-.56A.57.57,0,0,1,4,1.79c.48,0,1,0,1.45,0H6.89a.57.57,0,0,1,.63.56A.58.58,0,0,1,6.9,2.91Zm2.46,0H9a.58.58,0,0,1-.6-.56A.57.57,0,0,1,9,1.79h.37a.57.57,0,0,1,.63.56A.58.58,0,0,1,9.36,2.91Z"/><path class="cls-1" d="M16.34,11.74A5.68,5.68,0,1,0,22,17.42,5.69,5.69,0,0,0,16.34,11.74Zm0,9.87a4.19,4.19,0,1,1,4.2-4.18A4.2,4.2,0,0,1,16.32,21.61Z"/><path class="cls-1" d="M17.07,16.67h1.15a.76.76,0,0,1,.82.75.75.75,0,0,1-.81.72c-.38,0-.76,0-1.16,0v1.26a.74.74,0,0,1-.48.67.67.67,0,0,1-.78-.19,1,1,0,0,1-.21-.54c0-.39,0-.78,0-1.2-.4,0-.77,0-1.15,0a.74.74,0,1,1,0-1.47h1.15c0-.39,0-.78,0-1.17a1,1,0,0,1,.21-.56.64.64,0,0,1,.77-.19.71.71,0,0,1,.48.67C17.08,15.83,17.07,16.23,17.07,16.67Z"/></g></g></svg>