<svg xmlns="http://www.w3.org/2000/svg" viewBox="0 0 30 29.99"><defs><style>.cls-1{fill:#666;}.cls-2{fill:#fff;}</style></defs><title>edtar</title><g id="Layer_2" data-name="Layer 2"><g id="Layer_1-2" data-name="Layer 1"><path class="cls-1" d="M30,3.15A3.24,3.24,0,0,0,26.85,0H3.1A3.18,3.18,0,0,0,0,3C0,3.77,0,4.5,0,5.23V15H0v5.06c0,2.3,0,4.6,0,6.91a3.13,3.13,0,0,0,3.06,3h7.31c5.46,0,10.92,0,16.38,0A3.28,3.28,0,0,0,30,26.71Q30,14.93,30,3.15Z"/><path class="cls-2" d="M19.05,6.78,7.56,18.27a.55.55,0,0,0-.16.3L6.49,22.8a.61.61,0,0,0,.68.73l4.19-.6a.57.57,0,0,0,.35-.18l11.5-11.84a1.11,1.11,0,0,0,0-1.56L20.63,6.78A1.11,1.11,0,0,0,19.05,6.78Z"/></g></g></svg>