<svg xmlns="http://www.w3.org/2000/svg" viewBox="0 0 16 12.94"><defs><style>.cls-1{fill:#666;}</style></defs><title>list</title><g id="Layer_2" data-name="Layer 2"><g id="Layer_1-2" data-name="Layer 1"><path class="cls-1" d="M0,2V.43h12V2Z"/><path class="cls-1" d="M0,5.66H12.09c0,.49,0,1,0,1.44,0,.07-.24.19-.37.19H.41c-.3,0-.43-.07-.41-.39S0,6.11,0,5.66Z"/><path class="cls-1" d="M12.08,10.81v1.63H0c0-.48,0-1,0-1.46,0-.06.21-.16.32-.16H12.08Z"/><path class="cls-1" d="M14.72,12.94a1.31,1.31,0,0,1-1.28-1.27,1.26,1.26,0,0,1,1.27-1.26A1.34,1.34,0,0,1,16,11.68,1.31,1.31,0,0,1,14.72,12.94Z"/><path class="cls-1" d="M14.75,7.7a1.26,1.26,0,1,1,0-2.52A1.29,1.29,0,0,1,16,6.41,1.31,1.31,0,0,1,14.75,7.7Z"/><path class="cls-1" d="M13.47,1.25A1.21,1.21,0,0,1,14.73,0,1.31,1.31,0,0,1,16,1.27a1.36,1.36,0,0,1-1.27,1.26A1.28,1.28,0,0,1,13.47,1.25Z"/></g></g></svg>