<svg xmlns="http://www.w3.org/2000/svg" viewBox="0 0 18.81 18.78"><defs><style>.cls-1{fill:#666;}</style></defs><title>lupa</title><g id="Layer_2" data-name="Layer 2"><g id="Layer_1-2" data-name="Layer 1"><path class="cls-1" d="M18.81,17.17,17.2,18.78l-.11-.09-5.15-5.15a.46.46,0,0,1-.1-.26,1.15,1.15,0,0,1,0-.37.59.59,0,0,0-.31-.61,6.86,6.86,0,0,1-5.66,1.58,6.81,6.81,0,0,1-4.33-2.52A7,7,0,1,1,13.88,8.15a6.87,6.87,0,0,1-1.58,3.37.56.56,0,0,0,.6.3,1,1,0,0,1,.93.38c1.6,1.63,3.22,3.24,4.84,4.86ZM7,11.82A4.84,4.84,0,1,0,2.15,7,4.83,4.83,0,0,0,7,11.82Z"/></g></g></svg>