<svg xmlns="http://www.w3.org/2000/svg" viewBox="0 0 19 18.61"><defs><style>.cls-1{fill:#666;}</style></defs><title>notificacion</title><g id="Layer_2" data-name="Layer 2"><g id="Layer_1-2" data-name="Layer 1"><path class="cls-1" d="M17.05,15.71H2.53a1.42,1.42,0,0,1-.61-.15,1.7,1.7,0,0,1,.2-.94c.39-.5.9-.9,1.32-1.38a1.27,1.27,0,0,0,.3-.76c0-1.49,0-3,0-4.48a6.05,6.05,0,0,1,2-4.72,6.81,6.81,0,0,1,1.78-1,.74.74,0,0,0,.58-.81,1.35,1.35,0,0,1,2-1.25,1.32,1.32,0,0,1,.67,1.38.56.56,0,0,0,.44.63,5.7,5.7,0,0,1,3.89,5.44c0,1.61,0,3.21,0,4.81a1.35,1.35,0,0,0,.33.8,10.29,10.29,0,0,0,1.23,1.24A1,1,0,0,1,17.05,15.71Z"/><path class="cls-1" d="M5.13,1.33C4.49,2,3.89,2.57,3.4,3.2a7.76,7.76,0,0,0-1.59,4c0,.14-.17.37-.27.37-.5,0-1,0-1.54,0a9,9,0,0,1,1-4A9.88,9.88,0,0,1,3.48.46c.26-.24.45-.29.72,0S4.81,1,5.13,1.33Z"/><path class="cls-1" d="M19,7.54a1.44,1.44,0,0,1-.24,0c-1.46.06-1.45,0-1.78-1.37a8.11,8.11,0,0,0-2.65-4.35L14,1.56s0-.07,0-.08L15.18.22A10,10,0,0,1,19,7.54Z"/><path class="cls-1" d="M11.34,16.83a1.87,1.87,0,0,1-3.73,0Z"/></g></g></svg>