<svg xmlns="http://www.w3.org/2000/svg" viewBox="0 0 43.44 23.45"><defs><style>.cls-1{fill:#666;}</style></defs><title>para el dashboard 1</title><g id="Layer_2" data-name="Layer 2"><g id="Layer_1-2" data-name="Layer 1"><path class="cls-1" d="M43.43,3.68a3.83,3.83,0,1,0-7.65.5,1.77,1.77,0,0,1-.41,1.22c-1.94,2-3.93,4-5.91,5.95a2.83,2.83,0,0,1-3.63,0c-1.2-1.18-2.36-2.4-3.58-3.55a2.32,2.32,0,0,1-.83-1.94A4,4,0,0,0,21,4,3.75,3.75,0,0,0,14,5.82a2.35,2.35,0,0,1-.81,1.94C10.81,10,8.51,12.35,6.21,14.67a3.07,3.07,0,0,1-2.54,1.19,3.7,3.7,0,0,0-3.67,4,3.89,3.89,0,0,0,3.92,3.6,3.76,3.76,0,0,0,3.58-4,2.17,2.17,0,0,1,.73-1.77q3.72-3.63,7.4-7.32a3.94,3.94,0,0,1,.92-.75,3.58,3.58,0,0,0,1.14.18A3.46,3.46,0,0,0,18.9,9.6a3.38,3.38,0,0,1,.93.75c1,1,2,2,3,3a2.87,2.87,0,0,1,1.07,2.43,3.78,3.78,0,1,0,7.55-.27,1.92,1.92,0,0,1,.71-1.82c1.76-1.72,3.52-3.43,5.23-5.2a2.94,2.94,0,0,1,2.37-1A3.77,3.77,0,0,0,43.43,3.68Z"/></g></g></svg>