<svg xmlns="http://www.w3.org/2000/svg" viewBox="0 0 28 24.08"><defs><style>.cls-1{fill:#666;}</style></defs><title>para el dashboard 1_1</title><g id="Layer_2" data-name="Layer 2"><g id="Layer_1-2" data-name="Layer 1"><path class="cls-1" d="M.79,9.42C3.64,7.69,6.49,6,9.32,4.22a1.42,1.42,0,0,1,1.88,0c2.43,1.8,4.93,3.5,7.38,5.26a.94.94,0,0,0,1.3,0c2.48-1.79,5-3.53,7.47-5.3.24-.17.56-.43.57-.67C28,2.44,28,1.28,28,0c-.38.24-.59.35-.78.49-2.35,1.66-4.7,3.3-7,5a1.28,1.28,0,0,1-1.78,0C15.94,3.69,13.45,2,11,.27a1.17,1.17,0,0,0-1-.08Q5.23,3,.58,5.85a1.16,1.16,0,0,0-.53.68C0,7.56,0,8.61,0,9.82.41,9.62.61,9.53.79,9.42Z"/><path class="cls-1" d="M1.05,17.05c4.28,0,8.57,0,12.86,0,4,0,8.08,0,12.12,0,2.23,0,1.88.32,2-2,0-.94-.24-1.21-1.19-1.21-8.24,0-16.47,0-24.71,0C0,13.87,0,13.88,0,16,0,16.79.22,17.06,1.05,17.05Z"/><path class="cls-1" d="M26.8,20.89c-8.23,0-16.47,0-24.7,0C0,20.91,0,20.91,0,23c0,.81.23,1.06,1.05,1,4.32,0,8.64,0,13,0,4,0,8,0,12,0,2.23,0,1.88.32,2-2C28,21.14,27.74,20.88,26.8,20.89Z"/></g></g></svg>