<svg xmlns="http://www.w3.org/2000/svg" viewBox="0 0 15 15.45"><defs><style>.cls-1{fill:#666;}</style></defs><title>setting</title><g id="Layer_2" data-name="Layer 2"><g id="Layer_1-2" data-name="Layer 1"><path class="cls-1" d="M15,5.5a1.87,1.87,0,0,1-.27.33c-.36.3-.72.6-1.1.86a.94.94,0,0,0-.38.78,1.59,1.59,0,0,0,.87,1.81,1,1,0,0,1,.17.13c.79.62.92.57.28,1.63-.32.54-.65,1.09-1,1.65a.58.58,0,0,1-.8.3c-.52-.19-1-.41-1.54-.58a1.42,1.42,0,0,0-.5,0l0,0c-1.15.65-1.15.65-1.34,2.31-.08.65-.1.67-.76.67-.86,0-1.72,0-2.58,0-.3,0-.44-.11-.48-.4-.06-.49-.15-1-.21-1.46a1,1,0,0,0-.44-.7,1.88,1.88,0,0,0-2.18-.12c-1.19.54-1,.48-1.62-.57-.35-.6-.67-1.21-1-1.8a.47.47,0,0,1,.14-.72,13.76,13.76,0,0,0,1.19-.95,1,1,0,0,0,.28-.55,1.8,1.8,0,0,0-.92-2c-1-.69-1-.59-.36-1.65q.51-.87,1-1.77c.19-.36.42-.49.81-.3A12.23,12.23,0,0,0,3.65,3a1.49,1.49,0,0,0,.59,0s0,0,.07,0c1-.3,1.18-1.06,1.24-2s.1-1,1.09-1H8.88c.4,0,.57.17.6.55a7.08,7.08,0,0,1,.09.79c-.06,1,.66,1.38,1.39,1.72a.69.69,0,0,0,.47,0c.51-.19,1-.39,1.49-.6.23-.1.39-.06.5.14.51.86,1,1.73,1.51,2.6A1.79,1.79,0,0,1,15,5.5ZM10.46,7.81a3,3,0,0,0-2.9-3,2.93,2.93,0,0,0-3,2.86,3,3,0,0,0,2.93,3A2.89,2.89,0,0,0,10.46,7.81Z"/></g></g></svg>