<svg xmlns="http://www.w3.org/2000/svg" viewBox="0 0 13 18.61"><defs><style>.cls-1{fill:#666;}</style></defs><title>ubicacion</title><g id="Layer_2" data-name="Layer 2"><g id="Layer_1-2" data-name="Layer 1"><path class="cls-1" d="M6.45,18.61c-.64-.79-1.27-1.54-1.86-2.32a26.78,26.78,0,0,1-4-6.79A7,7,0,0,1,1,3,6.51,6.51,0,0,1,13,6a8.12,8.12,0,0,1-.72,3.76A33,33,0,0,1,6.45,18.61ZM6.46,9A2.48,2.48,0,0,0,8.89,6.57,2.5,2.5,0,0,0,6.52,4.13,2.45,2.45,0,0,0,4.08,6.55,2.39,2.39,0,0,0,6.46,9Z"/></g></g></svg>