<svg xmlns="http://www.w3.org/2000/svg" viewBox="0 0 30 29.99"><defs><style>.cls-1{fill:#666;}</style></defs><title>usuario cuadrado</title><g id="Layer_2" data-name="Layer 2"><g id="Layer_1-2" data-name="Layer 1"><path class="cls-1" d="M0,15V5.23C0,4.5,0,3.77,0,3A3.18,3.18,0,0,1,3.1,0H26.85A3.24,3.24,0,0,1,30,3.15q0,11.79,0,23.56A3.28,3.28,0,0,1,26.77,30c-5.46,0-10.92,0-16.38,0H3.08A3.13,3.13,0,0,1,0,27c0-2.31,0-4.61,0-6.91V15ZM15,25.16h0c.19,0,.38,0,.58,0l9,0c.36,0,.5-.13.47-.49a4.6,4.6,0,0,1,0-.83,3.33,3.33,0,0,0-1.71-3.22,12.47,12.47,0,0,0-2.22-1.19,15.1,15.1,0,0,0-8.7-1.08,17,17,0,0,0-5,1.65,4.46,4.46,0,0,0-2.46,2.44,11.81,11.81,0,0,0-.24,2.16c0,.43.14.57.56.57C8.59,25.15,11.8,25.16,15,25.16ZM15,15A5.09,5.09,0,1,0,15,4.86,5.09,5.09,0,1,0,15,15Z"/></g></g></svg>