<svg xmlns="http://www.w3.org/2000/svg" viewBox="0 0 19 19.16"><defs><style>.cls-1{fill:#666;}</style></defs><title>user sin fondo</title><g id="Layer_2" data-name="Layer 2"><g id="Layer_1-2" data-name="Layer 1"><path class="cls-1" d="M0,19.16c0-1.05,0-2,0-3a1.8,1.8,0,0,1,.42-.88,6.06,6.06,0,0,1,2.47-1.8,15.91,15.91,0,0,1,7.35-1.41,14.36,14.36,0,0,1,7.13,2.21A3,3,0,0,1,19,17.17a12.36,12.36,0,0,0,0,1.49c0,.39-.13.5-.51.5-2.76,0-5.52,0-8.28,0H0Z"/><path class="cls-1" d="M9.59,9.48A4.71,4.71,0,0,1,4.77,4.89a4.76,4.76,0,1,1,9.51-.19A4.72,4.72,0,0,1,9.59,9.48Z"/></g></g></svg>