<svg xmlns="http://www.w3.org/2000/svg" viewBox="0 0 16.5 16.49"><defs><style>.cls-1{fill:#666;}</style></defs><title>usuario redondo</title><g id="Layer_2" data-name="Layer 2"><g id="Layer_1-2" data-name="Layer 1"><path class="cls-1" d="M8.25,16.49A8.25,8.25,0,1,1,16.5,8.26,8.23,8.23,0,0,1,8.25,16.49Zm.06-2.25a5.8,5.8,0,0,0,.59,0,6.56,6.56,0,0,0,2.72-1,6.64,6.64,0,0,0,1.49-1.41.62.62,0,0,0,.09-.72,2.87,2.87,0,0,0-1-1A7.27,7.27,0,0,0,8.67,9a7.7,7.7,0,0,0-2.29.24,6.55,6.55,0,0,0-2.17.89,2.33,2.33,0,0,0-.91,1,.65.65,0,0,0,.09.74A6.07,6.07,0,0,0,8.31,14.24Zm2.48-9.33A2.52,2.52,0,1,0,8.25,7.44,2.52,2.52,0,0,0,10.79,4.91Z"/></g></g></svg>