<svg xmlns="http://www.w3.org/2000/svg" viewBox="0 0 13 8.3"><defs><style>.cls-1{fill:#666;}</style></defs><title>ver</title><g id="Layer_2" data-name="Layer 2"><g id="Layer_1-2" data-name="Layer 1"><path class="cls-1" d="M6.62,8.3A7.21,7.21,0,0,1,.68,5.39,7.67,7.67,0,0,1,0,4.28.3.3,0,0,1,0,4,6.61,6.61,0,0,1,3.52.63,7.27,7.27,0,0,1,9.2.53,6.69,6.69,0,0,1,13,4a.36.36,0,0,1,0,.32A6.85,6.85,0,0,1,7.85,8.16C7.4,8.24,7,8.27,6.62,8.3ZM6.25,6.9a3.42,3.42,0,0,0,1.83-.42,2.64,2.64,0,0,0,.63-4.16,3.13,3.13,0,0,0-4.25-.18A2.61,2.61,0,0,0,4,5.61,2.86,2.86,0,0,0,6.25,6.9Z"/><path class="cls-1" d="M6.6,5.81a1.91,1.91,0,0,1-1.54-.67,1.58,1.58,0,0,1,.22-2.2,1.86,1.86,0,0,1,2.31-.09,1.5,1.5,0,0,1,.67,1.48,1.58,1.58,0,0,1-1.1,1.35A3.32,3.32,0,0,1,6.6,5.81Z"/></g></g></svg>